<svg width="16" height="18" viewBox="0 0 16 18" fill="none" xmlns="http://www.w3.org/2000/svg">
<path d="M1.33336 7.33325H4.66669V1.49992C4.66669 1.2789 4.75449 1.06694 4.91077 0.910662C5.06705 0.754381 5.27901 0.666584 5.50003 0.666584H10.5C10.721 0.666584 10.933 0.754381 11.0893 0.910662C11.2456 1.06694 11.3334 1.2789 11.3334 1.49992V7.33325H14.6667C14.8236 7.33352 14.9772 7.37802 15.11 7.46166C15.2427 7.54529 15.3492 7.66467 15.4171 7.80607C15.4851 7.94748 15.5118 8.10518 15.4942 8.26108C15.4765 8.41697 15.4153 8.56474 15.3175 8.68742L8.65086 17.0208C8.33336 17.4166 7.66669 17.4166 7.34919 17.0208L0.682526 8.68742C0.584724 8.56474 0.523501 8.41697 0.505886 8.26108C0.48827 8.10518 0.514976 7.94748 0.582938 7.80607C0.650899 7.66467 0.757361 7.54529 0.890099 7.46166C1.02284 7.37802 1.17647 7.33352 1.33336 7.33325Z" fill="black"/>
<path d="M1.33336 7.33325H4.66669V1.49992C4.66669 1.2789 4.75449 1.06694 4.91077 0.910662C5.06705 0.754381 5.27901 0.666584 5.50003 0.666584H10.5C10.721 0.666584 10.933 0.754381 11.0893 0.910662C11.2456 1.06694 11.3334 1.2789 11.3334 1.49992V7.33325H14.6667C14.8236 7.33352 14.9772 7.37802 15.11 7.46166C15.2427 7.54529 15.3492 7.66467 15.4171 7.80607C15.4851 7.94748 15.5118 8.10518 15.4942 8.26108C15.4765 8.41697 15.4153 8.56474 15.3175 8.68742L8.65086 17.0208C8.33336 17.4166 7.66669 17.4166 7.34919 17.0208L0.682526 8.68742C0.584724 8.56474 0.523501 8.41697 0.505886 8.26108C0.48827 8.10518 0.514976 7.94748 0.582938 7.80607C0.650899 7.66467 0.757361 7.54529 0.890099 7.46166C1.02284 7.37802 1.17647 7.33352 1.33336 7.33325Z" fill="url(#paint0_linear_313_473)"/>
<path d="M7.73889 16.7092C7.84182 16.8366 8.07468 16.8519 8.20959 16.7561L8.26038 16.7083L14.9264 8.37622V8.37524C14.9654 8.32623 14.9906 8.26756 14.9977 8.20532C15.0047 8.14288 14.9936 8.07935 14.9664 8.02271C14.9392 7.9661 14.8965 7.91851 14.8434 7.88501C14.7902 7.85151 14.7285 7.83336 14.6656 7.83325H10.8336V1.50024C10.8336 1.41184 10.7985 1.32643 10.736 1.26392C10.6735 1.20142 10.588 1.16626 10.4996 1.16626H5.49963C5.41143 1.16636 5.32669 1.20158 5.26428 1.26392C5.20177 1.32642 5.16663 1.41184 5.16663 1.50024V7.83325H1.33459C1.27175 7.83336 1.21003 7.85151 1.15686 7.88501C1.1037 7.9185 1.06104 7.96608 1.03381 8.02271C1.00659 8.07935 0.995507 8.14287 1.00256 8.20532C1.00967 8.26764 1.03377 8.32717 1.07288 8.37622L7.73889 16.7092Z" stroke="white" stroke-opacity="0.22"/>
<defs>
<linearGradient id="paint0_linear_313_473" x1="8.00003" y1="17.3176" x2="8.00003" y2="0.666584" gradientUnits="userSpaceOnUse">
<stop stop-color="white" stop-opacity="0.8"/>
<stop offset="1" stop-color="white" stop-opacity="0.4"/>
</linearGradient>
</defs>
</svg>
