<svg width="16" height="18" viewBox="0 0 16 18" fill="none" xmlns="http://www.w3.org/2000/svg">
<path d="M1.33336 10.6667H4.66669V16.5001C4.66669 16.7211 4.75449 16.9331 4.91077 17.0893C5.06705 17.2456 5.27901 17.3334 5.50003 17.3334H10.5C10.721 17.3334 10.933 17.2456 11.0893 17.0893C11.2456 16.9331 11.3334 16.7211 11.3334 16.5001V10.6667H14.6667C14.8236 10.6665 14.9772 10.622 15.11 10.5383C15.2427 10.4547 15.3492 10.3353 15.4171 10.1939C15.4851 10.0525 15.5118 9.89482 15.4942 9.73892C15.4765 9.58303 15.4153 9.43526 15.3175 9.31258L8.65086 0.979248C8.33336 0.583415 7.66669 0.583415 7.34919 0.979248L0.682526 9.31258C0.584724 9.43526 0.523501 9.58303 0.505886 9.73892C0.48827 9.89482 0.514976 10.0525 0.582938 10.1939C0.650899 10.3353 0.757361 10.4547 0.890099 10.5383C1.02284 10.622 1.17647 10.6665 1.33336 10.6667Z" fill="black"/>
<path d="M1.33336 10.6667H4.66669V16.5001C4.66669 16.7211 4.75449 16.9331 4.91077 17.0893C5.06705 17.2456 5.27901 17.3334 5.50003 17.3334H10.5C10.721 17.3334 10.933 17.2456 11.0893 17.0893C11.2456 16.9331 11.3334 16.7211 11.3334 16.5001V10.6667H14.6667C14.8236 10.6665 14.9772 10.622 15.11 10.5383C15.2427 10.4547 15.3492 10.3353 15.4171 10.1939C15.4851 10.0525 15.5118 9.89482 15.4942 9.73892C15.4765 9.58303 15.4153 9.43526 15.3175 9.31258L8.65086 0.979248C8.33336 0.583415 7.66669 0.583415 7.34919 0.979248L0.682526 9.31258C0.584724 9.43526 0.523501 9.58303 0.505886 9.73892C0.48827 9.89482 0.514976 10.0525 0.582938 10.1939C0.650899 10.3353 0.757361 10.4547 0.890099 10.5383C1.02284 10.622 1.17647 10.6665 1.33336 10.6667Z" fill="url(#paint0_linear_313_470)"/>
<path d="M7.73889 1.29077C7.84182 1.16336 8.07468 1.14809 8.20959 1.2439L8.26038 1.29175L14.9264 9.62378V9.62476C14.9654 9.67377 14.9906 9.73244 14.9977 9.79468C15.0047 9.85712 14.9936 9.92065 14.9664 9.97729C14.9392 10.0339 14.8965 10.0815 14.8434 10.115C14.7902 10.1485 14.7285 10.1666 14.6656 10.1667H10.8336V16.4998C10.8336 16.5882 10.7985 16.6736 10.736 16.7361C10.6735 16.7986 10.588 16.8337 10.4996 16.8337H5.49963C5.41143 16.8336 5.32669 16.7984 5.26428 16.7361C5.20177 16.6736 5.16663 16.5882 5.16663 16.4998V10.1667H1.33459C1.27175 10.1666 1.21003 10.1485 1.15686 10.115C1.1037 10.0815 1.06104 10.0339 1.03381 9.97729C1.00659 9.92065 0.995507 9.85713 1.00256 9.79468C1.00967 9.73236 1.03377 9.67283 1.07288 9.62378L7.73889 1.29077Z" stroke="white" stroke-opacity="0.22"/>
<defs>
<linearGradient id="paint0_linear_313_470" x1="8.00003" y1="0.682373" x2="8.00003" y2="17.3334" gradientUnits="userSpaceOnUse">
<stop stop-color="white" stop-opacity="0.8"/>
<stop offset="1" stop-color="white" stop-opacity="0.4"/>
</linearGradient>
</defs>
</svg>
