<svg width="7" height="11" viewBox="0 0 7 11" fill="none" xmlns="http://www.w3.org/2000/svg">
<path d="M6.09115 0.791333C6.24622 0.931645 6.33333 1.12192 6.33333 1.32032C6.33333 1.51872 6.24622 1.709 6.09115 1.84931L1.99663 5.55297L6.09115 9.25664C6.24182 9.39775 6.3252 9.58675 6.32331 9.78293C6.32143 9.97911 6.23444 10.1668 6.08107 10.3055C5.9277 10.4442 5.72024 10.5229 5.50336 10.5246C5.28647 10.5263 5.07753 10.4509 4.92152 10.3146L0.242185 6.08196C0.0871137 5.94165 -5.14532e-07 5.75137 -4.94822e-07 5.55297C-4.75111e-07 5.35457 0.0871138 5.1643 0.242185 5.02399L4.92152 0.791333C5.07664 0.651065 5.287 0.572266 5.50633 0.572266C5.72567 0.572266 5.93603 0.651065 6.09115 0.791333Z" fill="white"/>
</svg>
