<svg width="22" height="24" viewBox="0 0 22 24" fill="none" xmlns="http://www.w3.org/2000/svg">
<path d="M10.8309 18.9942H18.8253C19.1366 19.0116 19.4472 18.949 19.7274 18.8124C20.0077 18.6757 20.2483 18.4696 20.4263 18.2136C20.6042 17.9575 20.7137 17.6602 20.7441 17.3499C20.7746 17.0396 20.725 16.7266 20.6002 16.4409C20.1776 15.1637 18.493 13.6317 18.493 12.1244C18.493 8.77878 18.493 7.89834 16.8449 5.93087C16.3115 5.29758 15.6502 4.7843 14.9044 4.42474L13.9852 3.97865C13.831 3.88556 13.6979 3.76122 13.5946 3.61363C13.4913 3.46605 13.42 3.29848 13.3854 3.12169C13.2935 2.52582 12.9784 1.9872 12.504 1.61508C12.0297 1.24295 11.4315 1.06518 10.8309 1.11782C10.2412 1.08241 9.65937 1.2681 9.19918 1.63864C8.73899 2.00918 8.43345 2.53795 8.34222 3.12169C8.30084 3.30458 8.21977 3.47613 8.10475 3.62422C7.98973 3.77231 7.84357 3.8933 7.67661 3.97865L6.75744 4.42474C6.01205 4.78444 5.35115 5.29771 4.81813 5.93087C3.17113 7.89834 3.17113 8.77878 3.17113 12.1244C3.17113 13.6317 1.56287 15.0099 1.14026 16.3634C0.885524 17.1816 0.744654 18.9942 2.87765 18.9942H10.8309Z" stroke="url(#paint0_linear_1_257)" stroke-width="1.76087" stroke-linecap="round" stroke-linejoin="round"/>
<path d="M14.6632 18.9926C14.6733 19.4984 14.5811 20.001 14.3921 20.4703C14.2032 20.9396 13.9214 21.3659 13.5637 21.7236C13.206 22.0813 12.7797 22.3631 12.3104 22.552C11.8411 22.7409 11.3385 22.8332 10.8327 22.8231C10.3268 22.8338 9.82397 22.7421 9.35445 22.5533C8.88493 22.3646 8.45846 22.0829 8.1007 21.725C7.74294 21.3671 7.46129 20.9406 7.27272 20.471C7.08415 20.0014 6.99255 19.4985 7.00343 18.9926" stroke="url(#paint1_linear_1_257)" stroke-width="1.76087" stroke-linecap="round" stroke-linejoin="round"/>
<defs>
<linearGradient id="paint0_linear_1_257" x1="10.8764" y1="1.10875" x2="10.8764" y2="18.997" gradientUnits="userSpaceOnUse">
<stop stop-color="white"/>
<stop offset="1" stop-color="#999999"/>
</linearGradient>
<linearGradient id="paint1_linear_1_257" x1="10.8333" y1="18.9926" x2="10.8333" y2="22.8239" gradientUnits="userSpaceOnUse">
<stop stop-color="white"/>
<stop offset="1" stop-color="#999999"/>
</linearGradient>
</defs>
</svg>
