<svg width="22" height="22" viewBox="0 0 22 22" fill="none" xmlns="http://www.w3.org/2000/svg">
<path d="M11.2186 9.42836V13.1986H17.4598C17.2054 14.817 15.5726 17.943 11.2186 17.943C7.46625 17.943 4.40069 14.8349 4.40069 11C4.40069 7.16511 7.46557 4.05692 11.2186 4.05692C13.3561 4.05692 14.7888 4.96305 15.6049 5.75092L18.5879 2.8758C16.6726 1.08898 14.1907 0.000671387 11.2186 0.000671387C5.13838 0.000671387 0.218628 4.91698 0.218628 11.0007C0.218628 17.0844 5.13838 22.0007 11.2186 22.0007C17.567 22.0007 21.7821 17.5388 21.7821 11.2516C21.7821 10.5284 21.703 9.97698 21.6068 9.42905L11.2186 9.42836Z" fill="white"/>
</svg>
