<svg width="41" height="41" viewBox="0 0 41 41" fill="none" xmlns="http://www.w3.org/2000/svg">
<g clip-path="url(#clip0_221_9416)">
<path d="M17.9668 11.2539L23.6196 16.8679C23.7062 16.9893 23.6762 17.077 23.6196 17.2006C23.4652 17.5389 22.4557 18.1998 22.2769 18.5527C22.2325 18.6392 22.2025 18.6909 22.2769 18.7752L31.6058 28.3364C32.8452 29.9481 30.9183 32.1297 29.2813 30.9136L19.7848 21.2984C19.7015 21.2231 19.6504 21.2535 19.5649 21.2984C19.305 21.4344 18.1856 22.8202 18.0645 22.8202L12.3939 17.0893L17.969 11.2539H17.9668Z" fill="white"/>
<path d="M21.604 32.0008H9.99401C9.40652 31.8828 8.98228 31.5659 9.00005 30.8589C9.03448 29.4787 10.4627 29.6653 11.4544 29.6777C10.6826 29.0033 10.3994 27.9378 11.4489 27.3691H20.0114C21.0753 27.9536 20.8066 29.0921 19.8948 29.6788H21.5051C21.5562 29.6788 21.8705 29.8496 21.9493 29.9036C22.8245 30.506 22.5013 31.6884 21.604 32.0008Z" fill="white"/>
<path d="M11.2888 17.8781L17.1171 23.7764C16.4264 24.4755 15.8444 25.3589 14.7916 24.67C14.3885 24.4058 10.6658 20.6384 10.4048 20.2305C9.72404 19.1661 10.5969 18.5772 11.2877 17.877L11.2888 17.8781Z" fill="white"/>
<path d="M20.3123 9.01849C20.6788 8.9533 20.942 9.06569 21.2319 9.27362C21.685 9.59731 25.4154 13.3861 25.653 13.7907C26.2239 14.7606 25.5042 15.3664 24.7779 15.9149L19.0585 10.3436L19.0029 10.1773C19.0029 9.8974 19.9969 9.07469 20.3123 9.01849Z" fill="white"/>
</g>
<defs>
<clipPath id="clip0_221_9416">
<rect width="23" height="23" fill="white" transform="translate(9 9)"/>
</clipPath>
</defs>
</svg>
