<svg width="34" height="34" viewBox="0 0 34 34" fill="none" xmlns="http://www.w3.org/2000/svg">
  <path d="M1 17.9412V5C1 2.79086 2.79086 1 5 1H29C31.2091 1 33 2.79086 33 5V29C33 31.2091 31.2091 33 29 33H5C2.79086 33 1 31.2091 1 29V17.9412Z" fill="black" fill-opacity="0.6" stroke="white" stroke-opacity="0.4" />
  <path d="M22.2143 25.619C21.4802 25.619 20.8562 25.3621 20.3423 24.8482C19.8284 24.3343 19.5714 23.7103 19.5714 22.9762C19.5714 22.8881 19.5935 22.6825 19.6375 22.3595L13.4488 18.7476C13.2139 18.9679 12.9423 19.1405 12.6339 19.2656C12.3256 19.3907 11.9952 19.453 11.6429 19.4524C10.9087 19.4524 10.2847 19.1954 9.77083 18.6815C9.25694 18.1677 9 17.5437 9 16.8095C9 16.0754 9.25694 15.4514 9.77083 14.9375C10.2847 14.4236 10.9087 14.1667 11.6429 14.1667C11.9952 14.1667 12.3256 14.2292 12.6339 14.3543C12.9423 14.4794 13.2139 14.6518 13.4488 14.8714L19.6375 11.2595C19.6081 11.1567 19.5899 11.0578 19.5829 10.9626C19.5758 10.8675 19.572 10.7609 19.5714 10.6429C19.5714 9.90873 19.8284 9.28472 20.3423 8.77083C20.8562 8.25694 21.4802 8 22.2143 8C22.9484 8 23.5724 8.25694 24.0863 8.77083C24.6002 9.28472 24.8571 9.90873 24.8571 10.6429C24.8571 11.377 24.6002 12.001 24.0863 12.5149C23.5724 13.0288 22.9484 13.2857 22.2143 13.2857C21.8619 13.2857 21.5315 13.2232 21.2232 13.0981C20.9149 12.973 20.6433 12.8006 20.4083 12.581L14.2196 16.1929C14.249 16.2956 14.2675 16.3949 14.2751 16.4906C14.2828 16.5863 14.2863 16.6927 14.2857 16.8095C14.2851 16.9264 14.2816 17.033 14.2751 17.1293C14.2687 17.2256 14.2502 17.3246 14.2196 17.4262L20.4083 21.0381C20.6433 20.8179 20.9149 20.6455 21.2232 20.521C21.5315 20.3965 21.8619 20.3339 22.2143 20.3333C22.9484 20.3333 23.5724 20.5903 24.0863 21.1042C24.6002 21.6181 24.8571 22.2421 24.8571 22.9762C24.8571 23.7103 24.6002 24.3343 24.0863 24.8482C23.5724 25.3621 22.9484 25.619 22.2143 25.619Z" fill="white" />
</svg>