<svg width="20" height="30" viewBox="0 0 20 21" fill="none" xmlns="http://www.w3.org/2000/svg">
<path fill-rule="evenodd" clip-rule="evenodd" d="M16.1494 10.5006L16.1495 11.6157C16.6523 11.7937 17.118 12.063 17.5232 12.41L18.4898 11.8519L19.9366 14.3578L18.9706 14.9155C19.0189 15.1773 19.0431 15.4428 19.043 15.709C19.043 15.98 19.0181 16.2452 18.9706 16.5024L19.9366 17.0602L18.4898 19.5661L17.5232 19.008C17.118 19.355 16.6523 19.6243 16.1495 19.8023V20.9173H13.2559V19.8023C12.753 19.6243 12.2873 19.355 11.8822 19.008L10.9155 19.5661L9.46875 17.0603L10.4348 16.5024C10.3865 16.2407 10.3623 15.9751 10.3624 15.709C10.3624 15.438 10.3873 15.1728 10.4348 14.9155L9.46875 14.3578L10.9155 11.8519L11.8821 12.41C12.2873 12.063 12.753 11.7937 13.2559 11.6157V10.5006H16.1494ZM9.2396 9.45898C10.1885 9.45898 11.0811 9.70762 11.8589 10.145C9.8398 11.181 8.45835 13.2836 8.45835 15.709C8.45835 16.8474 8.7627 17.9146 9.29443 18.834H0.125V15.084C0.125 12.055 2.45254 9.58525 5.36831 9.46367L5.59375 9.45898H9.2396ZM14.7027 13.9729C13.7438 13.9729 12.9666 14.7502 12.9666 15.709C12.9666 16.6678 13.7439 17.4451 14.7027 17.4451C15.6615 17.4451 16.4388 16.6678 16.4388 15.709C16.4388 14.7501 15.6615 13.9729 14.7027 13.9729ZM7.41665 0.0839844C9.43023 0.0839844 11.0625 1.71631 11.0625 3.72983C11.0625 5.67622 9.53721 7.26641 7.6167 7.37026L7.41665 7.37564C5.40313 7.37564 3.77085 5.74331 3.77085 3.72983C3.77085 1.7834 5.29614 0.193213 7.21665 0.0893555L7.41665 0.0839844Z" fill="white"/>
</svg>
