<svg width="16" height="12" viewBox="0 0 16 12" fill="none" xmlns="http://www.w3.org/2000/svg">
<path d="M0.666748 11.3332V9.46652C0.666748 9.08874 0.764081 8.74163 0.958748 8.42519C1.15341 8.10874 1.41164 7.86697 1.73341 7.69985C2.4223 7.35541 3.1223 7.09719 3.83341 6.92519C4.54453 6.75319 5.26675 6.66697 6.00008 6.66652C6.73342 6.66608 7.45564 6.7523 8.16675 6.92519C8.87786 7.09808 9.57786 7.3563 10.2667 7.69985C10.589 7.86652 10.8474 8.1083 11.0421 8.42519C11.2367 8.74208 11.3339 9.08919 11.3334 9.46652V11.3332H0.666748ZM12.6667 11.3332V9.33319C12.6667 8.8443 12.5307 8.37474 12.2587 7.92452C11.9867 7.4743 11.6005 7.0883 11.1001 6.76652C11.6667 6.83319 12.2001 6.94719 12.7001 7.10852C13.2001 7.26985 13.6667 7.46697 14.1001 7.69985C14.5001 7.92208 14.8056 8.16919 15.0167 8.44119C15.2279 8.71319 15.3334 9.01052 15.3334 9.33319V11.3332H12.6667ZM6.00008 5.99985C5.26675 5.99985 4.63897 5.73874 4.11675 5.21652C3.59453 4.6943 3.33341 4.06652 3.33341 3.33319C3.33341 2.59985 3.59453 1.97208 4.11675 1.44985C4.63897 0.927632 5.26675 0.666521 6.00008 0.666521C6.73342 0.666521 7.36119 0.927632 7.88341 1.44985C8.40564 1.97208 8.66675 2.59985 8.66675 3.33319C8.66675 4.06652 8.40564 4.6943 7.88341 5.21652C7.36119 5.73874 6.73342 5.99985 6.00008 5.99985ZM12.6667 3.33319C12.6667 4.06652 12.4056 4.6943 11.8834 5.21652C11.3612 5.73874 10.7334 5.99985 10.0001 5.99985C9.87786 5.99985 9.7223 5.98608 9.53341 5.95852C9.34453 5.93097 9.18897 5.9003 9.06675 5.86652C9.36675 5.51097 9.59741 5.11652 9.75875 4.68319C9.92008 4.24985 10.0005 3.79985 10.0001 3.33319C9.99964 2.86652 9.91919 2.41652 9.75875 1.98319C9.5983 1.54985 9.36764 1.15541 9.06675 0.799854C9.2223 0.744299 9.37786 0.708077 9.53341 0.691188C9.68897 0.674299 9.84453 0.666077 10.0001 0.666521C10.7334 0.666521 11.3612 0.927632 11.8834 1.44985C12.4056 1.97208 12.6667 2.59985 12.6667 3.33319Z" fill="white"/>
</svg>
