<svg width="22" height="22" viewBox="0 0 22 22" fill="none" xmlns="http://www.w3.org/2000/svg">
<path d="M19.2499 2.75V14.2083C19.2499 15.0592 18.9119 15.8753 18.3102 16.477C17.7085 17.0786 16.8925 17.4167 16.0416 17.4167C15.1907 17.4167 14.3746 17.0786 13.773 16.477C13.1713 15.8753 12.8333 15.0592 12.8333 14.2083C12.8333 13.3574 13.1713 12.5414 13.773 11.9397C14.3746 11.338 15.1907 11 16.0416 11C16.5366 11 17.0041 11.11 17.4166 11.3117V5.93083L8.24992 7.88333V16.0417C8.24992 16.8926 7.9119 17.7086 7.31022 18.3103C6.70854 18.912 5.89249 19.25 5.04159 19.25C4.19068 19.25 3.37463 18.912 2.77295 18.3103C2.17127 17.7086 1.83325 16.8926 1.83325 16.0417C1.83325 15.1908 2.17127 14.3747 2.77295 13.773C3.37463 13.1714 4.19068 12.8333 5.04159 12.8333C5.53659 12.8333 6.00409 12.9433 6.41658 13.145V5.5L19.2499 2.75Z" fill="white"/>
</svg>
