<svg width="20" height="20" viewBox="0 0 20 20" fill="none" xmlns="http://www.w3.org/2000/svg">
<g clip-path="url(#clip0_482_602)">
<path d="M16.71 7.12998L16.46 7.69998C16.42 7.78998 16.36 7.86998 16.27 7.92998C16.19 7.98998 16.09 8.00998 15.99 8.00998C15.89 8.00998 15.79 7.97998 15.71 7.92998C15.63 7.86998 15.56 7.79998 15.52 7.69998L15.27 7.12998C14.84 6.12998 14.05 5.32998 13.05 4.87998L12.29 4.53998C12.2 4.49998 12.12 4.42998 12.07 4.33998C12.02 4.24998 11.99 4.15998 11.99 4.04998C11.99 3.93998 12.02 3.84998 12.07 3.75998C12.12 3.66998 12.2 3.60998 12.29 3.55998L13.01 3.23998C14.03 2.77998 14.84 1.94998 15.26 0.90998L15.51 0.29998C15.55 0.20998 15.61 0.11998 15.7 0.0699805C15.78 0.00998047 15.88 -0.0200195 15.98 -0.0200195C16.08 -0.0200195 16.18 0.00998047 16.26 0.0699805C16.34 0.12998 16.41 0.20998 16.45 0.29998L16.7 0.90998C17.12 1.94998 17.93 2.77998 18.95 3.23998L19.67 3.55998C19.76 3.59998 19.84 3.66998 19.89 3.75998C19.94 3.84998 19.97 3.93998 19.97 4.04998C19.97 4.15998 19.94 4.24998 19.89 4.33998C19.84 4.42998 19.76 4.48998 19.67 4.53998L18.91 4.87998C17.91 5.32998 17.12 6.12998 16.69 7.12998H16.71ZM0.99 1.99998H10V3.99998H2V18H16V9.99998H18V19.01C18 19.27 17.9 19.53 17.71 19.71C17.52 19.9 17.27 20 17.01 20H0.99C0.73 20 0.47 19.9 0.29 19.71C0.1 19.52 0 19.27 0 19.01V2.98998C0 2.43998 0.44 1.99998 0.99 1.99998ZM9.14 14.59L4.26 11.34C4.21 11.3 4.16 11.25 4.13 11.2C4.1 11.14 4.08 11.08 4.08 11.01C4.08 10.94 4.1 10.88 4.13 10.82C4.16 10.76 4.21 10.71 4.26 10.68L9.14 7.42998C9.2 7.38998 9.27 7.36998 9.34 7.35998C9.41 7.34998 9.48 7.36998 9.55 7.40998C9.61 7.43998 9.67 7.48998 9.7 7.55998C9.74 7.61998 9.76 7.68998 9.76 7.75998V14.27C9.76 14.34 9.74 14.41 9.7 14.48C9.66 14.54 9.61 14.59 9.55 14.63C9.49 14.66 9.41 14.68 9.34 14.68C9.27 14.68 9.2 14.65 9.14 14.61V14.59ZM12.99 14.59L8.11 11.34C8.06 11.3 8.01 11.25 7.98 11.2C7.95 11.14 7.93 11.08 7.93 11.01C7.93 10.94 7.95 10.88 7.98 10.82C8.01 10.76 8.06 10.71 8.11 10.68L12.99 7.42998C13.05 7.38998 13.12 7.36998 13.19 7.35998C13.26 7.34998 13.33 7.36998 13.4 7.40998C13.46 7.43998 13.52 7.48998 13.55 7.55998C13.59 7.61998 13.61 7.68998 13.61 7.75998V14.27C13.61 14.34 13.59 14.41 13.55 14.48C13.51 14.54 13.46 14.59 13.4 14.63C13.34 14.66 13.26 14.68 13.19 14.68C13.12 14.68 13.05 14.65 12.99 14.61V14.59Z" fill="white"/>
</g>
<defs>
<clipPath id="clip0_482_602">
<rect width="20" height="20" fill="white"/>
</clipPath>
</defs>
</svg>
