<svg width="16" height="16" viewBox="0 0 16 16" fill="none" xmlns="http://www.w3.org/2000/svg">
<path d="M8.00004 14.6673C7.07782 14.6673 6.21115 14.4922 5.40004 14.142C4.58893 13.7918 3.88337 13.3169 3.28338 12.7173C2.68338 12.1178 2.20849 11.4122 1.85871 10.6006C1.50893 9.78909 1.33382 8.92243 1.33337 8.00065C1.33293 7.07887 1.50804 6.21221 1.85871 5.40065C2.20937 4.5891 2.68426 3.88354 3.28338 3.28398C3.88249 2.68443 4.58804 2.20954 5.40004 1.85932C6.21204 1.5091 7.07871 1.33398 8.00004 1.33398C8.92137 1.33398 9.78804 1.5091 10.6 1.85932C11.412 2.20954 12.1176 2.68443 12.7167 3.28398C13.3158 3.88354 13.7909 4.5891 14.142 5.40065C14.4932 6.21221 14.668 7.07887 14.6667 8.00065C14.6654 8.92243 14.4903 9.78909 14.1414 10.6006C13.7925 11.4122 13.3176 12.1178 12.7167 12.7173C12.1158 13.3169 11.4103 13.792 10.6 14.1426C9.78982 14.4933 8.92315 14.6682 8.00004 14.6673ZM8.00004 13.334C9.48893 13.334 10.75 12.8173 11.7834 11.784C12.8167 10.7507 13.3334 9.48954 13.3334 8.00065C13.3334 7.92287 13.3307 7.84221 13.3254 7.75865C13.32 7.6751 13.3172 7.60576 13.3167 7.55065C13.2612 7.87287 13.1112 8.13954 12.8667 8.35065C12.6223 8.56176 12.3334 8.66732 12 8.66732H10.6667C10.3 8.66732 9.98626 8.53687 9.72538 8.27598C9.46449 8.0151 9.33382 7.7011 9.33337 7.33398V6.66732H6.66671V5.33398C6.66671 4.96732 6.79738 4.65354 7.05871 4.39265C7.32004 4.13176 7.63382 4.0011 8.00004 4.00065H8.66671C8.66671 3.7451 8.73626 3.52021 8.87537 3.32598C9.01449 3.13176 9.18382 2.97332 9.38338 2.85065C9.16115 2.7951 8.93626 2.75065 8.70871 2.71732C8.48115 2.68398 8.24493 2.66732 8.00004 2.66732C6.51115 2.66732 5.25004 3.18398 4.21671 4.21732C3.18337 5.25065 2.66671 6.51176 2.66671 8.00065H6.00004C6.73338 8.00065 7.36115 8.26176 7.88337 8.78398C8.4056 9.30621 8.66671 9.93398 8.66671 10.6673V11.334H6.66671V13.1673C6.88893 13.2229 7.10849 13.2647 7.32537 13.2927C7.54226 13.3207 7.76715 13.3344 8.00004 13.334Z" fill="white"/>
</svg>
