<svg width="28" height="29" viewBox="0 0 28 29" fill="none" xmlns="http://www.w3.org/2000/svg">
<path d="M14 28.3147C12.1607 28.3198 10.339 27.9559 8.63967 27.2442C6.94034 26.5325 5.39676 25.4877 4.09965 24.169C2.79557 22.8573 1.76241 21.2964 1.05864 19.5779C0.354879 17.8595 -0.00512035 16.0173 5.50178e-05 14.1574C-0.00495471 12.2974 0.354889 10.4552 1.05864 8.73679C1.7624 7.01838 2.79571 5.4575 4.09965 4.14574C5.39646 2.82664 6.9393 1.78127 8.6387 1.06957C10.3381 0.357865 12.1606 -0.00561506 14 6.55696e-05C15.8393 -0.00516797 17.661 0.358878 19.3603 1.07055C21.0597 1.78223 22.6033 2.827 23.9004 4.14574C25.204 5.45773 26.2376 7.01843 26.9414 8.73679C27.6451 10.4551 28.0046 12.2975 28 14.1574C28.0047 16.0173 27.6451 17.8596 26.9414 19.5779C26.2376 21.2963 25.2041 22.8571 23.9004 24.169C22.603 25.4874 21.0596 26.5325 19.3603 27.2442C17.6611 27.9558 15.8392 28.3195 14 28.3147ZM6.07034 17.6602C6.74375 19.2194 7.852 20.5461 9.25979 21.478C10.6676 22.4098 12.3135 22.9067 13.9961 22.9069C14.2261 22.9069 14.4092 22.9003 14.5732 22.8872C16.3494 22.7638 18.0451 22.091 19.4306 20.9605C20.8162 19.83 21.8246 18.2964 22.3193 16.567L20.0478 15.1074C19.4688 14.7363 18.7978 14.5387 18.1123 14.5386C17.3939 14.5376 16.6911 14.7537 16.0947 15.1587L12.0225 17.9228C11.2577 18.4482 10.3533 18.7283 9.42873 18.7267C8.7779 18.7281 8.13447 18.5908 7.54007 18.3228L6.07034 17.6602ZM14 5.40386C12.6819 5.40938 11.3819 5.71693 10.1983 6.3035C9.01459 6.89008 7.978 7.74103 7.16604 8.7911C6.35298 9.84259 5.79048 11.0691 5.52152 12.3759C5.25256 13.6826 5.28458 15.0338 5.61527 16.326C5.65826 16.3329 5.70024 16.3453 5.74027 16.3625L7.96389 17.359C8.42481 17.5699 8.92476 17.6793 9.43068 17.6789C10.149 17.6785 10.8513 17.4607 11.4463 17.0538L15.5146 14.2887C16.2826 13.7646 17.1888 13.4853 18.1152 13.4868C19.0009 13.4853 19.8685 13.741 20.6152 14.2225L22.5634 15.4747C22.7527 14.2282 22.672 12.955 22.3281 11.7428C21.9842 10.5306 21.3851 9.40887 20.5713 8.45337C19.7585 7.49566 18.7505 6.7271 17.6162 6.2008C16.4819 5.6745 15.248 5.40231 14 5.40386ZM10.9082 13.4779C10.4993 13.4782 10.1069 13.3147 9.8174 13.0227C9.5279 12.7307 9.36507 12.3341 9.36428 11.9206C9.36454 11.5066 9.52693 11.1093 9.81643 10.8165C10.1059 10.5238 10.4988 10.3596 10.9082 10.3593C11.3176 10.3596 11.7095 10.5238 11.999 10.8165C12.2885 11.1093 12.4519 11.5066 12.4522 11.9206C12.4514 12.3341 12.2885 12.7307 11.999 13.0227C11.7095 13.3147 11.3171 13.4782 10.9082 13.4779Z" fill="currentColor"/>
</svg>
