<svg width="29" height="29" viewBox="0 0 29 29" fill="none" xmlns="http://www.w3.org/2000/svg">
<path opacity="0.4" d="M14.1394 28.3153C11.3704 28.3155 8.66341 27.4853 6.36093 25.9297C4.05846 24.3741 2.26389 22.163 1.20418 19.5759C0.144467 16.9889 -0.132781 14.1422 0.407495 11.3958C0.947772 8.64941 2.28131 6.12673 4.23944 4.14679C6.86509 1.49164 10.4262 0 14.1394 0C17.8527 0 21.4138 1.49164 24.0394 4.14679C26.6651 6.80193 28.1402 10.4031 28.1402 14.158C28.1402 17.913 26.6651 21.5141 24.0394 24.1693C22.7424 25.488 21.1995 26.5335 19.5001 27.2451C17.8008 27.9568 15.9787 28.3206 14.1394 28.3153ZM6.80044 11.2588C6.65405 11.2626 6.5106 11.3012 6.3817 11.3715C6.25279 11.4418 6.14205 11.5417 6.05844 11.6633C5.96919 11.7913 5.90734 11.9368 5.87686 12.0904C5.84639 12.244 5.84795 12.4023 5.88144 12.5552L7.10944 18.6499C7.14363 18.8743 7.25392 19.0796 7.42141 19.2307C7.5889 19.3818 7.80316 19.4693 8.02744 19.4781H20.2514C20.4756 19.469 20.6897 19.3816 20.8572 19.2307C21.0248 19.0799 21.1355 18.875 21.1704 18.6509L22.3994 12.5613C22.433 12.4078 22.4345 12.2489 22.4038 12.0948C22.3732 11.9407 22.3111 11.7948 22.2214 11.6663C22.1382 11.5447 22.0276 11.4446 21.8989 11.3743C21.7701 11.304 21.6267 11.2655 21.4804 11.2618C21.3078 11.2633 21.1395 11.3172 20.9974 11.4166L18.5524 13.0649C18.4098 13.1624 18.2417 13.2148 18.0694 13.2156C17.899 13.2117 17.7329 13.1605 17.5894 13.0676C17.4458 12.9747 17.3303 12.8436 17.2554 12.6887L14.9554 8.23926C14.8826 8.08319 14.7675 7.95126 14.6233 7.85886C14.4792 7.76646 14.3121 7.7174 14.1414 7.7174C13.9708 7.7174 13.8037 7.76646 13.6595 7.85886C13.5154 7.95126 13.4002 8.08319 13.3274 8.23926L11.0274 12.6887C10.9522 12.8436 10.8365 12.9747 10.6928 13.0677C10.5492 13.1608 10.383 13.2122 10.2124 13.2166C10.0401 13.2155 9.87204 13.1627 9.72944 13.0649L7.28344 11.4166C7.14181 11.316 6.97347 11.2611 6.80044 11.2588Z" fill="currentColor"/>
</svg>
