<svg width="28" height="29" viewBox="0 0 28 29" fill="none" xmlns="http://www.w3.org/2000/svg">
<path opacity="0.4" d="M14 28.3146C10.2882 28.3106 6.72914 26.8181 4.10449 24.164C1.47984 21.5099 0.00397056 17.9108 0 14.1573C0.00449881 10.4039 1.48093 6.80562 4.10547 4.1516C6.73 1.49757 10.2884 0.00454936 14 0C17.7117 0.00454936 21.27 1.49757 23.8945 4.1516C26.5191 6.80562 27.9955 10.4039 28 14.1573C27.996 17.9108 26.5202 21.5099 23.8955 24.164C21.2709 26.8181 17.7118 28.3106 14 28.3146ZM14 19.6865L16.5996 20.7995C16.8091 20.8931 17.0356 20.9409 17.2646 20.9407H17.2871C17.5232 20.94 17.7564 20.8904 17.9727 20.7945C18.1889 20.6987 18.3835 20.5589 18.5439 20.3837C18.7055 20.2092 18.8305 20.0024 18.9102 19.7774C18.9898 19.5523 19.0223 19.3138 19.0068 19.0752L18.8066 16.004L20.6572 13.6655C20.8379 13.4375 20.9586 13.1671 21.0088 12.8794C21.0589 12.5917 21.037 12.296 20.9443 12.0193C20.8532 11.7429 20.695 11.4941 20.4844 11.2954C20.2737 11.0967 20.0173 10.9544 19.7383 10.8816L16.999 10.1568L15.499 7.58822L15.4766 7.55464C15.3147 7.31175 15.0966 7.11332 14.8408 6.97595C14.585 6.83857 14.2994 6.76715 14.0098 6.76758C13.7201 6.76715 13.4345 6.83857 13.1787 6.97595C12.9229 7.11332 12.7049 7.31175 12.543 7.55464L11.0137 10.1568L8.2793 10.8777C7.99859 10.9498 7.73973 11.0923 7.52832 11.2925C7.31691 11.4926 7.15986 11.7437 7.07031 12.0223C6.97768 12.2987 6.95515 12.5951 7.00586 12.8824C7.05656 13.1697 7.17889 13.4386 7.36035 13.6655L9.20996 16.005L9.00977 19.0723C8.99338 19.3111 9.02529 19.5504 9.10352 19.7764C9.18174 20.0024 9.30472 20.2103 9.46484 20.3867C9.62714 20.5615 9.82346 20.7002 10.041 20.7955C10.2586 20.8908 10.4934 20.9405 10.7305 20.9407C10.9647 20.9411 11.1961 20.8933 11.4111 20.7995L14.0059 19.6865H14Z" fill="currentColor"/>
</svg>
